
  <svg width="600" height="450" xmlns="http://www.w3.org/2000/svg" viewBox="0 0 600 450">
 <style type="text/css">
  .st1{fill:#0563C9;}
  .st3{fill:#1871E8;}
  .st4{font-weight:400;}
  .st5{font-size:16.3187px;}
  .st6{font-weight:700;}
  .st7{font-size:8px;}
  .st8{font-weight: 800;}
  .st9{font-size:16.8388px;}
  .st10{font-size:24.635px;}
  .st11{font-weight: 400;}
  .st12{font-size:16.3299px;}</style>

 <g>
  <title>background</title>
  <rect fill="none" id="canvas_background" height="450" width="600" y="-1" x="-1" class="grey-light" />
 </g>
 <g>
  <title>Layer 1</title>
  <g class="phone">
   <path d="m170.8,277.7l-93.1,0l0,-161.7l93.1,0l0,161.7z" class="white"/>
   <g class="phone_content" id="meter_content">
    <path d="m170.8,277.7l-93.1,0l0,-161.7l93.1,0l0,161.7z" class="white"/>
    <rect height="29.9" width="84.4" y="225.3" x="82.2" class="active"/>
    <text x="-201" y="0" class="white st8 st9" transform="matrix(1,0,0,1,308.4347,246.9947) ">PAID</text>
    <g id="pay_button">
     <rect height="29.9" width="84.4" y="225.3" x="82.2" class="grey"/>
     <text x="-201" y="0" class="white st8 st9" transform="matrix(1,0,0,1,308.4347,246.9947) ">PAY</text>
    </g>
    <g class="timer">
     <g class="text">
      <rect height="35" width="84.4" y="150" x="82.2" class="white"/>
      <text x="-201" y="0" class="grey st8 st10" transform="matrix(1,0,0,1,293.0308,176.8834) ">00:00</text>
     </g>
     <g class="text">
      <rect height="35" width="84.4" y="150" x="82.2" class="white"/>
      <text x="-201" y="0" class="grey st8 st10" transform="matrix(1,0,0,1,293.0308,176.8834) ">00:10</text>
     </g>
     <g class="text">
      <rect height="35" width="84.4" y="150" x="82.2" class="white"/>
      <text x="-201" y="0" class="grey st8 st10" transform="matrix(1,0,0,1,293.0308,176.8834) ">00:20</text>
     </g>
     <g class="text">
      <rect height="35" width="84.4" y="150" x="82.2" class="white"/>
      <text x="-201" y="0" class="grey st8 st10" transform="matrix(1,0,0,1,293.0308,176.8834) ">00:30</text>
     </g>
    </g>
    <polygon points="135.5,149.60000610351562 124.39999389648438,140.6999969482422 113.39999389648438,149.60000610351562 109.89999389648438,145.1999969482422 124.39999389648438,133.5 139,145.1999969482422 " class="grey" id="add_time"/>
    <polygon points="124.39999389648438,204.5 109.89999389648438,192.79998779296875 113.39999389648438,188.39999389648438 124.39999389648438,197.30001831054688 135.5,188.39999389648438 139,192.79998779296875 " class="grey" id="subtract_time"/>
   </g>
   <g id="content_mask">
    <rect height="200" width="150" y="-100" x="49" class="grey-light"/>
    <rect height="200" width="150" y="300" x="49" class="grey-light"/>
    <path d="m124.4,290.4c-2.5,0 -4.6,2.1 -4.6,4.6s2.1,4.6 4.6,4.6s4.6,-2.1 4.6,-4.6s-2.1,-4.6 -4.6,-4.6z" class="white"/>
    <path d="m124.4,284.8c-5.6,0 -10.2,4.6 -10.2,10.2c0,5.6 4.6,10.2 10.2,10.2s10.2,-4.6 10.2,-10.2c0,-5.6 -4.6,-10.2 -10.2,-10.2zm0,14.8c-2.5,0 -4.6,-2.1 -4.6,-4.6s2.1,-4.6 4.6,-4.6s4.6,2.1 4.6,4.6s-2.1,4.6 -4.6,4.6z"/>
    <path d="m72.1,283.3l104.3,0l0,-172.9l-104.3,0l0,172.9zm5.6,-167.3l93.1,0l0,161.7l-93.1,0l0,-161.7z"/>
    <path d="m172.6,95.1l-96.7,0c-4.7,0 -8.6,3.9 -8.6,8.6l0,194.5c0,4.7 3.9,8.6 8.6,8.6l96.7,0c2.3,0 4.5,-0.9 6.1,-2.6c1.6,-1.6 2.5,-3.8 2.5,-6.1l0,-194.4c0,-4.7 -3.9,-8.6 -8.6,-8.6zm-48.2,210.1c-5.6,0 -10.2,-4.6 -10.2,-10.2c0,-5.6 4.6,-10.2 10.2,-10.2s10.2,4.6 10.2,10.2c0,5.6 -4.6,10.2 -10.2,10.2zm52,-21.9l-104.3,0l0,-172.9l104.3,0l0,172.9l0,0z" class="white"/>
    <path d="m172.6,89.5l-96.7,0c-7.8,0 -14.2,6.4 -14.2,14.2l0,194.5c0,7.8 6.4,14.2 14.2,14.2l96.7,0c3.8,0 7.4,-1.5 10.1,-4.3c2.7,-2.7 4.1,-6.3 4.1,-10l0,-194.4c0,-7.8 -6.4,-14.2 -14.2,-14.2zm8.6,208.6c0,2.3 -0.8,4.4 -2.5,6.1c-1.6,1.7 -3.8,2.6 -6.1,2.6l-96.7,0c-4.7,0 -8.6,-3.9 -8.6,-8.6l0,-194.5c0,-4.7 3.9,-8.6 8.6,-8.6l96.7,0c4.7,0 8.6,3.9 8.6,8.6l0,194.4l0,0z"/>
   </g>
  </g>
  <g class="target" id="meter">
   <g>
    <path d="m413.4,77.3c-37.7,0 -68.4,30.7 -68.4,68.4c0,5.5 0.6,10.9 1.9,16.2l23,83.5c2.6,9.8 8.8,21.4 23.6,21.4l10,0l0,-8.5l-9.9,0c-4.9,0 -11.9,-1.5 -15.4,-14.9l-18.8,-66.2l-4.3,-17.2c-1.1,-4.4 -1.7,-9.3 -1.7,-14.3c0,-32 25.2,-58.2 56.9,-59.8c1,-0.1 2,-0.1 3,-0.1s2,0 3,0.1c31.6,1.6 56.9,27.8 56.9,59.8c0,5 -0.6,9.8 -1.7,14.3l-4.3,17.4l-18.8,66.2c-3.5,13.3 -10.5,14.8 -15.4,14.8l-9.9,0l0,8.5l9.9,0c11.8,0 20,-7.4 23.6,-21.4l23,-83.6c1.4,-5 2.1,-10.4 2.1,-16.2c0.1,-37.7 -30.6,-68.4 -68.3,-68.4z" class="white"/>
    <path d="m413.4,71.7c-40.8,0 -74,33.2 -74,74c0,5.9 0.7,11.8 2.1,17.6l23,83.6c4.4,16.5 14.7,25.6 29,25.6l10,0l0,48.7l19.7,0l0,-48.7l9.9,0c14.5,0 24.8,-9.1 29,-25.6l23,-83.6c1.5,-5.5 2.3,-11.4 2.3,-17.7c0,-40.7 -33.2,-73.9 -74,-73.9zm66.3,90.2l-23,83.6c-3.6,14 -11.8,21.4 -23.6,21.4l-9.9,0l0,-8.5l9.9,0c4.9,0 11.9,-1.5 15.4,-14.8l18.8,-66.2l4.3,-17.4c1.1,-4.5 1.7,-9.3 1.7,-14.3c0,-32 -25.2,-58.2 -56.9,-59.8c-1,-0.1 -2,-0.1 -3,-0.1s-2,0 -3,0.1c-31.6,1.6 -56.9,27.8 -56.9,59.8c0,5 0.6,9.8 1.7,14.3l4.2,17.4l18.8,66.2c3.5,13.3 10.5,14.9 15.4,14.9l9.9,0l0,8.5l-10,0c-14.8,0 -21,-11.6 -23.6,-21.4l-23,-83.5c-1.3,-5.3 -1.9,-10.8 -1.9,-16.2c0,-37.7 30.7,-68.4 68.4,-68.4s68.4,30.7 68.4,68.4c0,5.5 -0.7,10.9 -2.1,16zm-70.6,153.7l0,-65.7l8.5,0l0,65.7l-8.5,0zm58,-170.5c0,29.6 -24.1,53.7 -53.7,53.7c-29.6,0 -53.7,-24.1 -53.7,-53.7s24.1,-53.7 53.7,-53.7c29.6,0 53.7,24.1 53.7,53.7zm-53.7,59.3c19.1,0 36.1,-9.1 47,-23.2l-17.3,60.8c-2.8,10.7 -7.5,10.7 -10,10.7l-9.9,0l0,-8.5l-19.7,0l0,8.5l-9.9,0c-2.5,0 -7.1,0 -10,-10.8l-17.3,-61c10.8,14.3 27.9,23.5 47.1,23.5z"/>
    <path d="m359.7,145.1c0,29.6 24.1,53.7 53.7,53.7c29.6,0 53.7,-24.1 53.7,-53.7s-24.1,-53.7 -53.7,-53.7c-29.6,0 -53.7,24.1 -53.7,53.7zm96.3,0l0,3.4l-85.2,0l0,-3.4c0,-23.5 19.1,-42.6 42.6,-42.6s42.6,19.1 42.6,42.6z" class="white"/>
    <path d="m413.4,108.1c-19.6,0 -35.8,15.4 -36.9,34.8l73.8,0c-1.2,-19.4 -17.3,-34.8 -36.9,-34.8z" class="white"/>
    <path d="m370.8,145.1l0,3.4l85.2,0l0,-3.4c0,-23.5 -19.1,-42.6 -42.6,-42.6s-42.6,19.1 -42.6,42.6zm5.7,-2.2c1.2,-19.4 17.3,-34.8 36.9,-34.8c19.6,0 35.8,15.4 36.9,34.8l-73.8,0z"/>
    <rect height="65.7" width="8.5" class="white" y="249.9" x="409.1"/>
   </g>
   <g class="device_signal">
    <path d="m412.8,187.7l-4.6,-4.6c-0.3,-0.3 -0.3,-0.9 0,-1.2l4.6,-4.6c0.3,-0.3 0.9,-0.3 1.2,0l4.6,4.6c0.3,0.3 0.3,0.9 0,1.2l-4.6,4.6c-0.3,0.3 -0.8,0.3 -1.2,0z"/>
    <path d="m408.8,177.9l1.1,-1.1c-1.3,-1 -2.1,-2.6 -2.1,-4.3c0,-3.1 2.5,-5.5 5.5,-5.5c1.5,0 2.9,0.6 3.9,1.6s1.6,2.4 1.6,3.9c0,1.7 -0.8,3.3 -2.1,4.3l1.1,1.1c1.5,-1.3 2.5,-3.2 2.5,-5.4c0,-1.9 -0.7,-3.7 -2.1,-5c-1.3,-1.3 -3.1,-2.1 -5,-2.1c-3.9,0 -7.1,3.2 -7.1,7.1c0.2,2.1 1.2,4.1 2.7,5.4z"/>
    <path d="m406,180.7l1.1,-1.1c-0.2,-0.1 -0.3,-0.3 -0.5,-0.4c-1.8,-1.8 -2.8,-4.2 -2.8,-6.7c0,-5.2 4.3,-9.5 9.5,-9.5c2.5,0 4.9,1 6.7,2.8s2.8,4.2 2.8,6.7c0,2.8 -1.2,5.4 -3.2,7.1l1.1,1.1c2.2,-2 3.7,-5 3.7,-8.2c0,-3 -1.2,-5.7 -3.2,-7.8c-2.1,-2.1 -4.9,-3.2 -7.8,-3.2c-6.1,0 -11.1,5 -11.1,11.1c0,3 1.2,5.7 3.2,7.8c0.2,0 0.3,0.1 0.5,0.3z"/>
   </g>
   <g id="meter_time">
    <g class="text">
     <rect height="17" width="45" y="121" x="389" class="white"/>
     <text x="-201" y="0" class="grey st11 st12" transform="matrix(1,0,0,1,592.8517,135.975) ">00:00</text>
    </g>
    <g class="text">
     <rect  height="17" width="45" y="121" x="389" class="white"/>
     <text x="-201" y="0" class="grey st11 st12" transform="matrix(1,0,0,1,592.8517,135.975) ">00:10</text>
    </g>
    <g  class="text">
     <rect  height="17" width="45" y="121" x="389" class="white"/>
     <text x="-201" y="0" class="grey st11 st12" transform="matrix(1,0,0,1,592.8517,135.975) ">00:20</text>
    </g>
    <g class="text">
     <rect  height="17" width="45" y="121" x="389" class="white"/>
     <text x="-201" y="0" class="grey st11 st12" transform="matrix(1,0,0,1,592.8517,135.975) ">00:30</text>
    </g>
   </g>
  </g>
 </g>
</svg>