<?xml version="1.0" encoding="utf-8"?>
<!-- Svg Vector Icons : http://www.onlinewebfonts.com/icon -->
<!DOCTYPE svg PUBLIC "-//W3C//DTD SVG 1.1//EN" "http://www.w3.org/Graphics/SVG/1.1/DTD/svg11.dtd">
<svg version="1.1" xmlns="http://www.w3.org/2000/svg" xmlns:xlink="http://www.w3.org/1999/xlink" x="0px" y="0px" viewBox="0 0 1000 1000" enable-background="new 0 0 1000 1000" xml:space="preserve">
<metadata> Svg Vector Icons : http://www.onlinewebfonts.com/icon </metadata>
<g><g transform="translate(0.000000,119.000000) scale(0.100000,-0.100000)"><path fill="rgb(24, 113, 232)" d="M2133.7,171.3c-204.8-147.5-557-467-778.2-720.9c-1687.5-1843.2-1671.1-4718.5,32.8-6561.7c245.8-262.1,606.2-589.8,802.8-720.9l352.2-245.8l163.8,270.3l172,270.4l-229.4,163.8C1789.6-6759,1093.3-5751.5,864-4784.8c-385,1654.7,294.9,3489.8,1646.6,4423.6C2871-115.5,2871-115.5,2748.1,122.1c-65.5,131.1-147.4,254-188.4,278.5C2526.9,417,2330.3,318.7,2133.7,171.3z"/><path fill="rgb(24, 113, 232)" d="M7294.6,187.6L7122.6-82.7L7352-246.5c483.3-344.1,1138.6-1081.3,1392.6-1564.7c1015.7-1916.9,466.9-4161.5-1351.7-5521.3l-262.2-204.8l163.8-270.4l163.8-270.3l352.2,245.8C8335-7480,9014.9-6701.7,9326.2-6128.3c974.9,1835,688.1,4104.1-712.7,5619.6c-245.8,262.2-606.2,589.8-802.8,720.9L7458.5,458L7294.6,187.6z"/><path fill="rgb(24, 113, 232)" d="M2797.3-1401.6c-286.7-254-516.1-573.4-720.9-999.4c-294.9-589.8-311.3-663.6-311.3-1409s16.4-819.2,311.3-1409.1c294.9-597.9,991.2-1376.1,1237-1376.1c49.2,0,155.6,114.6,237.6,262.1c139.3,245.8,139.3,262.1,0,335.8c-270.3,147.5-729.1,688.2-925.7,1089.6c-286.7,573.4-286.7,1622,0,2195.4c196.6,401.4,655.4,942.1,925.7,1089.5c139.3,73.7,139.3,90.1,0,335.8c-81.9,147.5-188.4,262.2-237.6,262.2C3256-1024.8,3026.6-1196.8,2797.3-1401.6z"/><path fill="rgb(24, 113, 232)" d="M6442.6-1278.7c-147.4-254-147.4-262.1,0-344c278.6-147.5,737.3-680,942.1-1089.5c155.7-327.7,196.6-524.3,196.6-1097.7c-8.2-630.8-32.8-745.5-278.6-1212.4c-253.9-475.1-548.9-802.8-884.7-983c-114.7-65.5-114.7-98.2,24.6-335.8c81.9-139.3,196.6-253.9,245.8-253.9c245.8,0,942.1,770,1237,1376.1c294.9,589.9,311.3,663.6,311.3,1409.1s-16.4,819.2-311.3,1409c-295,606.2-991.3,1376.2-1237,1376.2C6639.3-1024.8,6524.6-1139.4,6442.6-1278.7z"/><path fill="rgb(24, 113, 232)" d="M4443.8-2261.7c-393.2-114.7-892.9-655.3-1007.6-1073.1c-188.4-729.1,98.3-1490.9,720.9-1875.9c466.9-295,1261.5-278.5,1720.3,24.6c507.8,335.8,720.9,737.3,720.9,1376.3c0,630.8-213,1040.4-696.3,1359.9C5549.8-2212.6,4878-2130.7,4443.8-2261.7z"/></g></g>
</svg>